<svg width="44" height="44" viewBox="0 0 44 44" fill="none" xmlns="http://www.w3.org/2000/svg">
<g id="si:User_alt">
<path id="Vector" d="M37.4003 40.3333H6.60033C4.98699 40.3333 3.66699 39.0133 3.66699 37.3999V28.8749C3.66699 28.4166 3.66699 28.1783 3.88699 27.7383C4.58366 26.1249 6.63699 24.7683 9.84532 23.6133C12.137 27.9766 16.7203 30.9466 21.982 30.9466C27.2437 30.9466 31.8453 27.9766 34.1187 23.6133C37.327 24.7499 39.3987 26.1433 40.077 27.7383C40.297 27.9583 40.297 28.4349 40.297 28.8749V37.3999C40.297 39.0133 38.977 40.3333 37.3637 40.3333H37.4003Z" fill="#33C375" stroke="#002726" stroke-linecap="round" stroke-linejoin="round"/>
<path id="Vector_2" d="M21.9997 24.7498C16.958 24.7498 12.833 20.6248 12.833 15.5832V12.8332C12.833 7.7915 16.958 3.6665 21.9997 3.6665C27.0413 3.6665 31.1663 7.7915 31.1663 12.8332V15.5832C31.1663 20.6248 27.0413 24.7498 21.9997 24.7498Z" fill="white" stroke="#002726" stroke-linecap="round" stroke-linejoin="round"/>
</g>
</svg>
