<svg xmlns="http://www.w3.org/2000/svg" xmlns:xlink="http://www.w3.org/1999/xlink" width="500" zoomAndPan="magnify" viewBox="0 0 375 374.999991" height="500" preserveAspectRatio="xMidYMid meet" version="1.2"><defs><clipPath id="6767246eea"><path d="M 138 146 L 234 146 L 234 267 L 138 267 Z M 138 146 "/></clipPath><clipPath id="d9c04d42cc"><path d="M 179.816406 146.878906 L 233.132812 169.949219 L 191.535156 266.09375 L 138.21875 243.023438 Z M 179.816406 146.878906 "/></clipPath></defs><g id="19757f77b5"><g style="fill:#33c375;fill-opacity:1;"><g transform="translate(144.193646, 344.858243)"><path style="stroke:none" d="M 103.65625 -98.109375 L 16.015625 -98.109375 L 16.015625 -120.59375 L 103.65625 -120.59375 Z M 103.65625 -98.109375 "/></g></g><g style="fill:#33c375;fill-opacity:1;"><g transform="translate(260.332818, 376.668432)"><path style="stroke:none" d="M -33.8125 -138.65625 L -77.265625 -62.546875 L -96.78125 -73.703125 L -53.328125 -149.8125 Z M -33.8125 -138.65625 "/></g></g><g style="fill:#33c375;fill-opacity:1;"><g transform="translate(241.753048, 368.8561)"><path style="stroke:none" d="M -2.546875 -131.484375 L -56.90625 -71.78125 L -72.234375 -85.734375 L -17.875 -145.4375 Z M -2.546875 -131.484375 "/></g></g><g style="fill:#33c375;fill-opacity:1;"><g transform="translate(164.397375, 230.069446)"><path style="stroke:none" d="M 75.046875 -68.078125 L 12.84375 -69.40625 L 13.1875 -85.375 L 75.390625 -84.046875 Z M 75.046875 -68.078125 "/></g></g><g style="fill:#33c375;fill-opacity:1;"><g transform="translate(123.821689, 323.039674)"><path style="stroke:none" d="M 75.046875 -68.078125 L 12.84375 -69.40625 L 13.1875 -85.375 L 75.390625 -84.046875 Z M 75.046875 -68.078125 "/></g></g><g clip-rule="nonzero" clip-path="url(#6767246eea)"><g clip-rule="nonzero" clip-path="url(#d9c04d42cc)"><path style=" stroke:none;fill-rule:nonzero;fill:#33c375;fill-opacity:1;" d="M 179.816406 146.878906 L 233.132812 169.949219 L 191.503906 266.167969 L 138.183594 243.101562 Z M 179.816406 146.878906 "/></g></g><g style="fill:#33c375;fill-opacity:1;"><g transform="translate(246.258712, 328.704992)"><path style="stroke:none" d="M -54.015625 -85.734375 L -66.109375 -24.703125 L -81.765625 -27.796875 L -69.671875 -88.828125 Z M -54.015625 -85.734375 "/></g></g><g style="fill:#33c375;fill-opacity:1;"><g transform="translate(251.604508, 368.8561)"><path style="stroke:none" d="M -2.546875 -131.484375 L -56.90625 -71.78125 L -72.234375 -85.734375 L -17.875 -145.4375 Z M -2.546875 -131.484375 "/></g></g><g style="fill:#33c375;fill-opacity:1;"><g transform="translate(154.545892, 244.041945)"><path style="stroke:none" d="M 75.046875 -68.078125 L 12.84375 -69.40625 L 13.1875 -85.375 L 75.390625 -84.046875 Z M 75.046875 -68.078125 "/></g></g><path style=" stroke:none;fill-rule:nonzero;fill:#222222;fill-opacity:1;" d="M 163.535156 334.488281 C 163.101562 334.488281 162.675781 334.4375 162.253906 334.34375 C 161.832031 334.246094 161.425781 334.109375 161.03125 333.921875 C 160.640625 333.738281 160.277344 333.511719 159.933594 333.242188 C 159.59375 332.976562 159.285156 332.675781 159.011719 332.339844 C 158.738281 332.007812 158.503906 331.644531 158.308594 331.257812 C 158.113281 330.871094 157.960938 330.46875 157.855469 330.050781 C 157.75 329.628906 157.691406 329.203125 157.683594 328.769531 C 157.671875 328.339844 157.707031 327.910156 157.792969 327.484375 L 171.089844 260.984375 L 134.136719 260.984375 C 133.894531 260.984375 133.652344 260.96875 133.414062 260.9375 C 133.175781 260.910156 132.9375 260.863281 132.703125 260.804688 C 132.46875 260.746094 132.238281 260.671875 132.015625 260.585938 C 131.789062 260.5 131.570312 260.398438 131.355469 260.28125 C 131.144531 260.167969 130.9375 260.042969 130.742188 259.902344 C 130.546875 259.761719 130.359375 259.609375 130.179688 259.445312 C 130 259.285156 129.832031 259.109375 129.675781 258.925781 C 129.519531 258.742188 129.375 258.550781 129.242188 258.347656 C 129.109375 258.148438 128.988281 257.9375 128.882812 257.722656 C 128.773438 257.503906 128.683594 257.28125 128.601562 257.054688 C 128.523438 256.824219 128.457031 256.59375 128.40625 256.355469 C 128.355469 256.121094 128.320312 255.882812 128.296875 255.640625 C 128.277344 255.402344 128.269531 255.160156 128.28125 254.917969 C 128.289062 254.675781 128.3125 254.4375 128.347656 254.199219 C 128.386719 253.960938 128.441406 253.726562 128.507812 253.492188 C 128.574219 253.261719 128.65625 253.035156 128.75 252.8125 L 172.851562 149.90625 C 173.078125 149.378906 173.375 148.894531 173.742188 148.457031 C 174.109375 148.015625 174.53125 147.640625 175.011719 147.324219 C 175.488281 147.007812 176.003906 146.769531 176.554688 146.605469 C 177.101562 146.441406 177.664062 146.359375 178.234375 146.359375 L 237.042969 146.359375 C 237.28125 146.359375 237.515625 146.375 237.753906 146.402344 C 237.992188 146.429688 238.226562 146.472656 238.457031 146.53125 C 238.6875 146.589844 238.914062 146.660156 239.136719 146.746094 C 239.359375 146.832031 239.578125 146.929688 239.789062 147.042969 C 240 147.152344 240.203125 147.277344 240.398438 147.414062 C 240.59375 147.550781 240.777344 147.699219 240.957031 147.859375 C 241.132812 148.015625 241.300781 148.1875 241.457031 148.367188 C 241.613281 148.546875 241.757812 148.734375 241.894531 148.933594 C 242.027344 149.128906 242.148438 149.335938 242.257812 149.546875 C 242.367188 149.757812 242.460938 149.976562 242.542969 150.199219 C 242.625 150.425781 242.695312 150.652344 242.746094 150.886719 C 242.800781 151.117188 242.84375 151.351562 242.867188 151.589844 C 242.894531 151.824219 242.902344 152.0625 242.902344 152.300781 C 242.898438 152.539062 242.878906 152.777344 242.847656 153.015625 C 242.816406 153.25 242.769531 153.484375 242.707031 153.714844 C 242.644531 153.945312 242.570312 154.171875 242.484375 154.390625 L 216.292969 219.863281 L 266.441406 219.863281 C 267.019531 219.863281 267.585938 219.949219 268.140625 220.117188 C 268.695312 220.285156 269.214844 220.53125 269.695312 220.851562 C 270.175781 221.171875 270.601562 221.558594 270.96875 222.007812 C 271.335938 222.453125 271.632812 222.945312 271.851562 223.480469 C 272.074219 224.015625 272.214844 224.574219 272.269531 225.148438 C 272.328125 225.726562 272.300781 226.296875 272.1875 226.867188 C 272.074219 227.433594 271.878906 227.972656 271.609375 228.484375 C 271.335938 228.996094 270.992188 229.457031 270.582031 229.867188 L 167.679688 332.769531 C 167.128906 333.320312 166.496094 333.742188 165.777344 334.039062 C 165.058594 334.335938 164.3125 334.488281 163.535156 334.488281 Z M 143.023438 249.265625 L 178.234375 249.265625 C 178.667969 249.261719 179.097656 249.308594 179.519531 249.40625 C 179.945312 249.5 180.351562 249.640625 180.742188 249.824219 C 181.132812 250.007812 181.5 250.234375 181.84375 250.503906 C 182.183594 250.769531 182.492188 251.070312 182.769531 251.40625 C 183.042969 251.738281 183.277344 252.101562 183.472656 252.488281 C 183.667969 252.875 183.816406 253.277344 183.921875 253.699219 C 184.027344 254.121094 184.082031 254.546875 184.09375 254.980469 C 184.105469 255.414062 184.066406 255.84375 183.980469 256.269531 L 173.074219 310.796875 L 252.296875 231.582031 L 207.640625 231.582031 C 207.402344 231.582031 207.164062 231.566406 206.929688 231.539062 C 206.691406 231.511719 206.457031 231.464844 206.226562 231.410156 C 205.996094 231.351562 205.769531 231.28125 205.546875 231.195312 C 205.324219 231.109375 205.105469 231.011719 204.894531 230.898438 C 204.683594 230.789062 204.480469 230.664062 204.285156 230.527344 C 204.089844 230.390625 203.90625 230.242188 203.726562 230.082031 C 203.550781 229.921875 203.382812 229.753906 203.226562 229.574219 C 203.070312 229.394531 202.925781 229.207031 202.789062 229.007812 C 202.65625 228.8125 202.535156 228.605469 202.425781 228.394531 C 202.316406 228.183594 202.222656 227.964844 202.140625 227.742188 C 202.058594 227.515625 201.988281 227.289062 201.9375 227.054688 C 201.882812 226.824219 201.839844 226.589844 201.816406 226.351562 C 201.789062 226.117188 201.777344 225.878906 201.78125 225.640625 C 201.785156 225.402344 201.804688 225.164062 201.835938 224.925781 C 201.867188 224.691406 201.914062 224.457031 201.976562 224.226562 C 202.035156 223.996094 202.113281 223.769531 202.199219 223.550781 L 228.390625 158.078125 L 182.097656 158.078125 Z M 143.023438 249.265625 "/><path style=" stroke:none;fill-rule:nonzero;fill:#222222;fill-opacity:1;" d="M 303.933594 263.921875 C 303.546875 263.921875 303.167969 263.886719 302.789062 263.8125 C 302.410156 263.734375 302.046875 263.625 301.691406 263.476562 C 301.335938 263.332031 300.996094 263.148438 300.675781 262.9375 C 300.355469 262.722656 300.0625 262.480469 299.789062 262.207031 C 299.515625 261.933594 299.273438 261.640625 299.058594 261.320312 C 298.847656 261 298.667969 260.660156 298.519531 260.304688 C 298.371094 259.949219 298.261719 259.585938 298.183594 259.207031 C 298.109375 258.828125 298.074219 258.449219 298.074219 258.0625 C 298.074219 257.679688 298.109375 257.296875 298.183594 256.921875 C 298.261719 256.542969 298.371094 256.175781 298.519531 255.820312 C 298.667969 255.464844 298.847656 255.128906 299.058594 254.808594 C 299.273438 254.488281 299.515625 254.191406 299.789062 253.921875 C 300.0625 253.648438 300.355469 253.40625 300.675781 253.191406 C 300.996094 252.980469 301.335938 252.796875 301.691406 252.652344 C 302.046875 252.503906 302.410156 252.390625 302.789062 252.316406 C 303.167969 252.242188 303.546875 252.203125 303.933594 252.203125 C 305.210938 252.203125 306.492188 252.144531 307.765625 252.027344 C 309.039062 251.910156 310.308594 251.734375 311.566406 251.5 C 312.824219 251.265625 314.070312 250.976562 315.304688 250.625 C 316.535156 250.277344 317.75 249.875 318.945312 249.414062 C 320.140625 248.953125 321.3125 248.4375 322.457031 247.871094 C 323.605469 247.304688 324.726562 246.683594 325.816406 246.011719 C 326.90625 245.339844 327.964844 244.621094 328.988281 243.855469 C 330.011719 243.085938 331 242.273438 331.949219 241.414062 C 332.898438 240.554688 333.808594 239.652344 334.675781 238.710938 C 335.542969 237.769531 336.363281 236.789062 337.140625 235.769531 C 337.917969 234.753906 338.644531 233.699219 339.324219 232.617188 C 340.007812 231.53125 340.632812 230.417969 341.210938 229.273438 C 341.789062 228.128906 342.3125 226.964844 342.785156 225.773438 C 343.253906 224.582031 343.667969 223.371094 344.027344 222.140625 C 344.386719 220.914062 344.6875 219.667969 344.933594 218.414062 C 345.179688 217.15625 345.363281 215.890625 345.492188 214.617188 C 345.621094 213.34375 345.691406 212.066406 345.703125 210.785156 C 345.710938 209.503906 345.664062 208.226562 345.558594 206.949219 C 345.449219 205.671875 345.285156 204.40625 345.0625 203.144531 C 344.839844 201.882812 344.558594 200.636719 344.21875 199.398438 C 343.882812 198.164062 343.488281 196.949219 343.035156 195.75 C 342.585938 194.550781 342.082031 193.375 341.523438 192.222656 C 340.964844 191.070312 340.355469 189.945312 339.695312 188.847656 C 339.03125 187.753906 338.324219 186.6875 337.5625 185.65625 C 336.804688 184.625 336 183.632812 335.148438 182.675781 C 334.296875 181.71875 333.402344 180.804688 332.46875 179.929688 C 331.535156 179.054688 330.558594 178.222656 329.546875 177.4375 C 328.535156 176.652344 327.492188 175.914062 326.414062 175.226562 C 325.332031 174.535156 324.222656 173.898438 323.085938 173.3125 C 321.949219 172.722656 320.785156 172.191406 319.597656 171.710938 C 318.410156 171.230469 317.207031 170.804688 315.980469 170.433594 C 314.753906 170.066406 313.511719 169.753906 312.257812 169.5 C 311.886719 169.421875 311.523438 169.3125 311.171875 169.167969 C 310.820312 169.019531 310.488281 168.84375 310.171875 168.632812 C 309.855469 168.421875 309.5625 168.183594 309.292969 167.914062 C 309.023438 167.644531 308.78125 167.355469 308.566406 167.039062 C 308.355469 166.726562 308.175781 166.394531 308.027344 166.042969 C 307.878906 165.691406 307.765625 165.332031 307.6875 164.960938 C 307.609375 164.585938 307.566406 164.210938 307.5625 163.832031 C 307.558594 163.453125 307.589844 163.074219 307.65625 162.699219 C 308.144531 160.101562 308.453125 157.476562 308.578125 154.835938 C 308.703125 152.191406 308.648438 149.550781 308.410156 146.917969 C 308.167969 144.28125 307.75 141.675781 307.152344 139.097656 C 306.554688 136.519531 305.78125 133.992188 304.835938 131.523438 C 303.890625 129.050781 302.777344 126.65625 301.5 124.339844 C 300.222656 122.023438 298.792969 119.800781 297.210938 117.683594 C 295.628906 115.5625 293.90625 113.558594 292.046875 111.675781 C 290.1875 109.792969 288.207031 108.046875 286.105469 106.4375 C 284.003906 104.828125 281.804688 103.371094 279.503906 102.066406 C 277.203125 100.757812 274.820312 99.617188 272.363281 98.640625 C 269.902344 97.664062 267.386719 96.859375 264.816406 96.230469 C 262.246094 95.597656 259.644531 95.148438 257.015625 94.878906 C 254.382812 94.605469 251.742188 94.515625 249.097656 94.609375 C 246.453125 94.703125 243.828125 94.976562 241.222656 95.429688 C 238.613281 95.886719 236.050781 96.519531 233.53125 97.328125 C 231.011719 98.136719 228.558594 99.113281 226.175781 100.261719 C 225.816406 100.433594 225.445312 100.566406 225.0625 100.664062 C 224.675781 100.757812 224.285156 100.8125 223.890625 100.832031 C 223.492188 100.847656 223.101562 100.824219 222.707031 100.761719 C 222.316406 100.699219 221.9375 100.59375 221.566406 100.453125 C 221.195312 100.3125 220.84375 100.136719 220.507812 99.925781 C 220.171875 99.714844 219.863281 99.46875 219.578125 99.195312 C 219.292969 98.917969 219.035156 98.617188 218.8125 98.289062 C 218.585938 97.964844 218.398438 97.617188 218.246094 97.25 C 217.429688 95.3125 216.53125 93.414062 215.554688 91.554688 C 214.574219 89.691406 213.519531 87.875 212.386719 86.105469 C 211.25 84.335938 210.042969 82.617188 208.761719 80.949219 C 207.480469 79.28125 206.128906 77.671875 204.710938 76.121094 C 203.292969 74.570312 201.808594 73.082031 200.261719 71.660156 C 198.714844 70.234375 197.109375 68.878906 195.445312 67.59375 C 193.78125 66.308594 192.066406 65.09375 190.300781 63.957031 C 188.53125 62.816406 186.71875 61.753906 184.859375 60.769531 C 183.003906 59.789062 181.105469 58.886719 179.167969 58.066406 C 177.234375 57.242188 175.265625 56.507812 173.265625 55.855469 C 171.269531 55.203125 169.246094 54.636719 167.199219 54.160156 C 165.148438 53.679688 163.085938 53.289062 161.003906 52.988281 C 158.925781 52.6875 156.832031 52.476562 154.734375 52.355469 C 152.636719 52.230469 150.535156 52.199219 148.433594 52.257812 C 146.332031 52.316406 144.234375 52.464844 142.148438 52.703125 C 140.058594 52.9375 137.984375 53.265625 135.921875 53.679688 C 133.859375 54.097656 131.820312 54.601562 129.800781 55.191406 C 127.785156 55.78125 125.796875 56.457031 123.835938 57.21875 C 121.875 57.980469 119.953125 58.824219 118.0625 59.75 C 116.175781 60.675781 114.332031 61.683594 112.53125 62.769531 C 110.730469 63.851562 108.976562 65.011719 107.277344 66.246094 C 105.574219 67.480469 103.929688 68.785156 102.339844 70.164062 C 100.75 71.539062 99.222656 72.980469 97.753906 74.488281 C 96.289062 75.996094 94.890625 77.5625 93.558594 79.1875 C 92.226562 80.816406 90.964844 82.496094 89.777344 84.234375 C 88.589844 85.96875 87.480469 87.75 86.445312 89.582031 C 85.410156 91.410156 84.457031 93.28125 83.582031 95.195312 C 82.707031 97.109375 81.917969 99.054688 81.210938 101.035156 C 80.503906 103.015625 79.882812 105.019531 79.347656 107.054688 C 78.8125 109.089844 78.367188 111.140625 78.007812 113.210938 C 77.648438 115.285156 77.378906 117.367188 77.199219 119.460938 C 77.015625 121.558594 76.925781 123.65625 76.925781 125.757812 C 76.925781 128.023438 77.070312 130.28125 77.269531 132.511719 C 77.332031 133.207031 77.273438 133.890625 77.089844 134.566406 C 76.910156 135.238281 76.617188 135.859375 76.210938 136.429688 C 75.808594 137 75.320312 137.480469 74.742188 137.875 C 74.167969 138.269531 73.542969 138.554688 72.863281 138.726562 C 71.175781 139.148438 69.511719 139.648438 67.871094 140.222656 C 66.230469 140.796875 64.617188 141.445312 63.035156 142.164062 C 61.453125 142.886719 59.90625 143.675781 58.394531 144.539062 C 56.882812 145.398438 55.414062 146.324219 53.988281 147.320312 C 52.558594 148.3125 51.179688 149.367188 49.847656 150.488281 C 48.515625 151.605469 47.238281 152.78125 46.015625 154.015625 C 44.789062 155.25 43.621094 156.539062 42.515625 157.878906 C 41.40625 159.21875 40.359375 160.605469 39.378906 162.042969 C 38.394531 163.476562 37.476562 164.953125 36.628906 166.46875 C 35.78125 167.988281 35 169.542969 34.292969 171.128906 C 33.585938 172.71875 32.949219 174.335938 32.386719 175.980469 C 31.824219 177.625 31.339844 179.292969 30.929688 180.984375 C 30.515625 182.671875 30.183594 184.378906 29.925781 186.097656 C 29.671875 187.820312 29.492188 189.546875 29.390625 191.28125 C 29.292969 193.019531 29.269531 194.757812 29.328125 196.496094 C 29.386719 198.234375 29.519531 199.964844 29.734375 201.691406 C 29.949219 203.417969 30.242188 205.128906 30.609375 206.828125 C 30.980469 208.527344 31.425781 210.207031 31.945312 211.867188 C 32.46875 213.527344 33.0625 215.15625 33.730469 216.761719 C 34.402344 218.367188 35.140625 219.941406 35.953125 221.476562 C 36.765625 223.015625 37.644531 224.515625 38.589844 225.972656 C 39.539062 227.429688 40.550781 228.84375 41.625 230.210938 C 42.699219 231.578125 43.835938 232.894531 45.027344 234.15625 C 46.222656 235.421875 47.472656 236.628906 48.777344 237.78125 C 50.078125 238.933594 51.433594 240.023438 52.835938 241.050781 C 54.238281 242.078125 55.683594 243.042969 57.171875 243.9375 C 58.664062 244.835938 60.1875 245.664062 61.753906 246.425781 C 63.320312 247.183594 64.914062 247.871094 66.542969 248.484375 C 68.167969 249.101562 69.820312 249.640625 71.496094 250.105469 C 73.171875 250.570312 74.863281 250.960938 76.574219 251.269531 C 78.285156 251.582031 80.007812 251.816406 81.738281 251.972656 C 83.472656 252.128906 85.207031 252.207031 86.945312 252.203125 C 87.332031 252.203125 87.710938 252.242188 88.089844 252.316406 C 88.464844 252.390625 88.832031 252.503906 89.1875 252.652344 C 89.542969 252.796875 89.882812 252.980469 90.203125 253.191406 C 90.519531 253.40625 90.816406 253.648438 91.089844 253.921875 C 91.363281 254.191406 91.605469 254.488281 91.816406 254.808594 C 92.03125 255.128906 92.210938 255.464844 92.359375 255.820312 C 92.507812 256.175781 92.617188 256.542969 92.691406 256.921875 C 92.769531 257.296875 92.804688 257.679688 92.804688 258.0625 C 92.804688 258.449219 92.769531 258.828125 92.691406 259.207031 C 92.617188 259.585938 92.507812 259.949219 92.359375 260.304688 C 92.210938 260.660156 92.03125 261 91.816406 261.320312 C 91.605469 261.640625 91.363281 261.933594 91.089844 262.207031 C 90.816406 262.480469 90.519531 262.722656 90.203125 262.9375 C 89.882812 263.148438 89.542969 263.332031 89.1875 263.476562 C 88.832031 263.625 88.464844 263.734375 88.089844 263.8125 C 87.710938 263.886719 87.332031 263.921875 86.945312 263.921875 C 84.90625 263.925781 82.867188 263.835938 80.832031 263.65625 C 78.800781 263.476562 76.777344 263.210938 74.769531 262.851562 C 72.757812 262.496094 70.769531 262.050781 68.796875 261.515625 C 66.828125 260.984375 64.886719 260.363281 62.96875 259.660156 C 61.054688 258.953125 59.171875 258.167969 57.324219 257.296875 C 55.480469 256.425781 53.675781 255.472656 51.914062 254.441406 C 50.152344 253.414062 48.4375 252.308594 46.773438 251.125 C 45.109375 249.941406 43.5 248.691406 41.945312 247.367188 C 40.390625 246.042969 38.898438 244.652344 37.46875 243.195312 C 36.039062 241.742188 34.671875 240.226562 33.375 238.648438 C 32.078125 237.074219 30.851562 235.441406 29.699219 233.757812 C 28.546875 232.074219 27.46875 230.34375 26.46875 228.5625 C 25.46875 226.78125 24.550781 224.960938 23.710938 223.101562 C 22.871094 221.242188 22.117188 219.347656 21.445312 217.417969 C 20.769531 215.492188 20.183594 213.539062 19.6875 211.558594 C 19.1875 209.578125 18.773438 207.582031 18.453125 205.566406 C 18.128906 203.550781 17.894531 201.523438 17.75 199.488281 C 17.605469 197.453125 17.550781 195.414062 17.589844 193.375 C 17.625 191.332031 17.75 189.296875 17.964844 187.265625 C 18.179688 185.238281 18.484375 183.21875 18.878906 181.21875 C 19.273438 179.214844 19.753906 177.234375 20.324219 175.273438 C 20.894531 173.3125 21.546875 171.378906 22.285156 169.476562 C 23.027344 167.574219 23.847656 165.707031 24.753906 163.878906 C 25.65625 162.046875 26.640625 160.261719 27.703125 158.519531 C 28.765625 156.773438 29.902344 155.082031 31.113281 153.4375 C 32.324219 151.796875 33.605469 150.210938 34.957031 148.679688 C 36.308594 147.148438 37.726562 145.683594 39.207031 144.277344 C 40.6875 142.875 42.230469 141.539062 43.828125 140.269531 C 45.429688 139 47.082031 137.804688 48.785156 136.683594 C 50.492188 135.558594 52.242188 134.515625 54.039062 133.546875 C 55.835938 132.578125 57.671875 131.691406 59.546875 130.886719 C 61.425781 130.082031 63.332031 129.359375 65.269531 128.722656 C 65.230469 127.738281 65.207031 126.753906 65.207031 125.757812 C 65.207031 123.382812 65.308594 121.011719 65.507812 118.644531 C 65.703125 116.273438 66.003906 113.917969 66.398438 111.578125 C 66.792969 109.234375 67.285156 106.910156 67.875 104.609375 C 68.464844 102.308594 69.148438 100.035156 69.929688 97.789062 C 70.710938 95.546875 71.582031 93.335938 72.546875 91.164062 C 73.511719 88.992188 74.5625 86.867188 75.707031 84.78125 C 76.847656 82.699219 78.074219 80.667969 79.386719 78.6875 C 80.699219 76.703125 82.09375 74.78125 83.566406 72.917969 C 85.039062 71.054688 86.585938 69.253906 88.210938 67.519531 C 89.835938 65.785156 91.527344 64.117188 93.289062 62.527344 C 95.050781 60.933594 96.878906 59.414062 98.769531 57.972656 C 100.65625 56.53125 102.605469 55.171875 104.605469 53.894531 C 106.609375 52.617188 108.664062 51.425781 110.765625 50.320312 C 112.867188 49.210938 115.015625 48.195312 117.203125 47.269531 C 119.390625 46.339844 121.613281 45.507812 123.871094 44.765625 C 126.128906 44.023438 128.414062 43.378906 130.722656 42.828125 C 133.035156 42.277344 135.367188 41.828125 137.714844 41.472656 C 140.066406 41.117188 142.425781 40.859375 144.796875 40.699219 C 147.167969 40.542969 149.539062 40.484375 151.917969 40.523438 C 154.292969 40.566406 156.664062 40.703125 159.027344 40.945312 C 161.390625 41.183594 163.742188 41.519531 166.078125 41.953125 C 168.414062 42.390625 170.726562 42.921875 173.019531 43.550781 C 175.308594 44.179688 177.570312 44.902344 179.800781 45.71875 C 182.03125 46.535156 184.226562 47.445312 186.382812 48.445312 C 188.535156 49.449219 190.644531 50.539062 192.710938 51.714844 C 194.773438 52.890625 196.785156 54.152344 198.742188 55.5 C 200.703125 56.84375 202.601562 58.269531 204.441406 59.773438 C 206.277344 61.277344 208.050781 62.855469 209.761719 64.507812 C 211.46875 66.160156 213.101562 67.882812 214.667969 69.671875 C 216.230469 71.460938 217.714844 73.3125 219.125 75.226562 C 220.53125 77.140625 221.859375 79.109375 223.101562 81.132812 C 224.347656 83.160156 225.503906 85.230469 226.574219 87.351562 C 234.441406 84.347656 242.585938 82.847656 251.007812 82.855469 C 252.144531 82.855469 253.277344 82.886719 254.410156 82.941406 C 255.542969 83 256.675781 83.082031 257.804688 83.195312 C 258.933594 83.308594 260.0625 83.449219 261.183594 83.617188 C 262.304688 83.78125 263.421875 83.976562 264.535156 84.199219 C 265.648438 84.421875 266.757812 84.671875 267.855469 84.949219 C 268.957031 85.226562 270.050781 85.527344 271.136719 85.859375 C 272.222656 86.1875 273.300781 86.546875 274.367188 86.929688 C 275.4375 87.3125 276.492188 87.71875 277.542969 88.15625 C 278.589844 88.589844 279.628906 89.050781 280.652344 89.535156 C 281.679688 90.019531 282.691406 90.53125 283.691406 91.066406 C 284.695312 91.601562 285.679688 92.164062 286.652344 92.746094 C 287.625 93.328125 288.585938 93.9375 289.527344 94.566406 C 290.472656 95.199219 291.398438 95.851562 292.3125 96.527344 C 293.222656 97.203125 294.117188 97.902344 294.992188 98.621094 C 295.871094 99.34375 296.730469 100.082031 297.570312 100.847656 C 298.410156 101.609375 299.234375 102.390625 300.035156 103.191406 C 300.839844 103.996094 301.621094 104.816406 302.382812 105.65625 C 303.144531 106.5 303.886719 107.359375 304.605469 108.234375 C 305.328125 109.113281 306.023438 110.007812 306.703125 110.917969 C 307.378906 111.828125 308.03125 112.757812 308.660156 113.699219 C 309.292969 114.644531 309.898438 115.601562 310.484375 116.574219 C 311.066406 117.546875 311.628906 118.535156 312.164062 119.535156 C 312.699219 120.535156 313.207031 121.550781 313.695312 122.574219 C 314.179688 123.601562 314.640625 124.636719 315.074219 125.683594 C 315.511719 126.734375 315.917969 127.792969 316.300781 128.859375 C 316.683594 129.929688 317.042969 131.003906 317.371094 132.089844 C 317.703125 133.175781 318.007812 134.269531 318.28125 135.371094 C 318.558594 136.472656 318.808594 137.578125 319.03125 138.691406 C 319.253906 139.804688 319.449219 140.921875 319.617188 142.042969 C 319.785156 143.167969 319.921875 144.292969 320.035156 145.421875 C 320.148438 146.550781 320.234375 147.683594 320.289062 148.816406 C 320.347656 149.949219 320.375 151.082031 320.378906 152.21875 C 320.375 154.621094 320.242188 157.015625 319.984375 159.40625 C 321.492188 159.878906 322.976562 160.421875 324.4375 161.027344 C 325.898438 161.632812 327.328125 162.304688 328.730469 163.035156 C 330.132812 163.769531 331.496094 164.5625 332.828125 165.417969 C 334.160156 166.273438 335.449219 167.183594 336.699219 168.152344 C 337.949219 169.121094 339.15625 170.144531 340.316406 171.222656 C 341.472656 172.296875 342.582031 173.421875 343.644531 174.597656 C 344.703125 175.769531 345.707031 176.988281 346.660156 178.253906 C 347.613281 179.515625 348.503906 180.820312 349.339844 182.164062 C 350.175781 183.503906 350.953125 184.882812 351.664062 186.292969 C 352.378906 187.707031 353.03125 189.144531 353.617188 190.613281 C 354.203125 192.082031 354.722656 193.574219 355.175781 195.089844 C 355.628906 196.605469 356.015625 198.140625 356.332031 199.6875 C 356.648438 201.238281 356.898438 202.796875 357.078125 204.371094 C 357.257812 205.941406 357.367188 207.519531 357.40625 209.097656 C 357.445312 210.679688 357.414062 212.261719 357.3125 213.839844 C 357.210938 215.417969 357.042969 216.988281 356.800781 218.550781 C 356.5625 220.113281 356.253906 221.664062 355.875 223.199219 C 355.496094 224.734375 355.054688 226.253906 354.539062 227.75 C 354.027344 229.246094 353.453125 230.714844 352.808594 232.160156 C 352.167969 233.605469 351.460938 235.019531 350.695312 236.402344 C 349.925781 237.785156 349.097656 239.132812 348.210938 240.441406 C 347.324219 241.75 346.378906 243.019531 345.378906 244.246094 C 344.378906 245.46875 343.328125 246.648438 342.222656 247.78125 C 341.117188 248.914062 339.964844 249.996094 338.765625 251.023438 C 337.566406 252.054688 336.324219 253.03125 335.035156 253.949219 C 333.75 254.871094 332.425781 255.730469 331.0625 256.53125 C 329.699219 257.335938 328.300781 258.074219 326.875 258.753906 C 325.445312 259.433594 323.988281 260.046875 322.503906 260.59375 C 321.023438 261.144531 319.515625 261.628906 317.992188 262.042969 C 316.464844 262.457031 314.921875 262.804688 313.367188 263.085938 C 311.808594 263.363281 310.242188 263.574219 308.667969 263.714844 C 307.09375 263.855469 305.515625 263.925781 303.933594 263.925781 Z M 303.933594 263.921875 "/></g></svg>