<svg xmlns="http://www.w3.org/2000/svg" xmlns:xlink="http://www.w3.org/1999/xlink" width="1000" zoomAndPan="magnify" viewBox="0 0 750 299.999988" height="400" preserveAspectRatio="xMidYMid meet" version="1.2"><defs><clipPath id="de83e61276"><path d="M 74.296875 146.046875 L 148.613281 146.046875 L 148.613281 293.148438 L 74.296875 293.148438 Z M 74.296875 146.046875 "/></clipPath><clipPath id="8c38ca2d8c"><path d="M 0 145.808594 L 74.292969 145.808594 L 74.292969 292.910156 L 0 292.910156 Z M 0 145.808594 "/></clipPath><clipPath id="7eb28f46e7"><path d="M 0.324219 80.460938 L 159.488281 80.460938 L 159.488281 183.238281 L 0.324219 183.238281 Z M 0.324219 80.460938 "/></clipPath><clipPath id="16592281b9"><path d="M 69.53125 162.609375 L 77.820312 162.609375 L 77.820312 300 L 69.53125 300 Z M 69.53125 162.609375 "/></clipPath><clipPath id="2a66bc13a2"><path d="M 0 183.238281 L 39.222656 183.238281 L 39.222656 217.152344 L 0 217.152344 Z M 0 183.238281 "/></clipPath><clipPath id="69139e0367"><path d="M 34.929688 181.515625 L 112.421875 181.515625 L 112.421875 217.152344 L 34.929688 217.152344 Z M 34.929688 181.515625 "/></clipPath><clipPath id="1653907657"><path d="M 0.324219 183.238281 L 69.644531 183.238281 L 69.644531 252.289062 L 0.324219 252.289062 Z M 0.324219 183.238281 "/></clipPath><clipPath id="f88da98913"><path d="M 34.929688 183.238281 C 15.816406 183.238281 0.324219 198.695312 0.324219 217.761719 C 0.324219 236.828125 15.816406 252.289062 34.929688 252.289062 C 54.039062 252.289062 69.53125 236.828125 69.53125 217.761719 C 69.53125 198.695312 54.039062 183.238281 34.929688 183.238281 Z M 34.929688 183.238281 "/></clipPath><clipPath id="cf9746d765"><path d="M 0.324219 109.082031 L 69.644531 109.082031 L 69.644531 178.132812 L 0.324219 178.132812 Z M 0.324219 109.082031 "/></clipPath><clipPath id="0caa304da0"><path d="M 34.929688 109.082031 C 15.816406 109.082031 0.324219 124.539062 0.324219 143.605469 C 0.324219 162.671875 15.816406 178.132812 34.929688 178.132812 C 54.039062 178.132812 69.53125 162.671875 69.53125 143.605469 C 69.53125 124.539062 54.039062 109.082031 34.929688 109.082031 Z M 34.929688 109.082031 "/></clipPath><clipPath id="7767c7e8e8"><path d="M 77.820312 181.515625 L 147.140625 181.515625 L 147.140625 250.566406 L 77.820312 250.566406 Z M 77.820312 181.515625 "/></clipPath><clipPath id="5ad138b53c"><path d="M 112.421875 181.515625 C 93.3125 181.515625 77.820312 196.972656 77.820312 216.039062 C 77.820312 235.109375 93.3125 250.566406 112.421875 250.566406 C 131.53125 250.566406 147.023438 235.109375 147.023438 216.039062 C 147.023438 196.972656 131.53125 181.515625 112.421875 181.515625 Z M 112.421875 181.515625 "/></clipPath><clipPath id="eed7e51dba"><path d="M 107.476562 148.710938 L 147.351562 148.710938 L 147.351562 215.429688 L 107.476562 215.429688 Z M 107.476562 148.710938 "/></clipPath><clipPath id="8e99a467bc"><path d="M 77.820312 114.1875 L 147.140625 114.1875 L 147.140625 183.238281 L 77.820312 183.238281 Z M 77.820312 114.1875 "/></clipPath><clipPath id="c79d4c2d4b"><path d="M 112.421875 114.1875 C 93.3125 114.1875 77.820312 129.644531 77.820312 148.710938 C 77.820312 167.78125 93.3125 183.238281 112.421875 183.238281 C 131.53125 183.238281 147.023438 167.78125 147.023438 148.710938 C 147.023438 129.644531 131.53125 114.1875 112.421875 114.1875 Z M 112.421875 114.1875 "/></clipPath><clipPath id="1883d3b2e2"><path d="M 77.820312 76.785156 L 147.351562 76.785156 L 147.351562 150.164062 L 77.820312 150.164062 Z M 77.820312 76.785156 "/></clipPath><clipPath id="bad3f08a96"><path d="M 77.820312 0 L 147.140625 0 L 147.140625 69.050781 L 77.820312 69.050781 Z M 77.820312 0 "/></clipPath><clipPath id="ecb56316d3"><path d="M 112.421875 0 C 93.3125 0 77.820312 15.457031 77.820312 34.523438 C 77.820312 53.59375 93.3125 69.050781 112.421875 69.050781 C 131.53125 69.050781 147.023438 53.59375 147.023438 34.523438 C 147.023438 15.457031 131.53125 0 112.421875 0 Z M 112.421875 0 "/></clipPath></defs><g id="af5a9fc024"><g clip-rule="nonzero" clip-path="url(#de83e61276)"><path style=" stroke:none;fill-rule:nonzero;fill:#00bf63;fill-opacity:1;" d="M 74.296875 146.097656 L 74.644531 146.097656 C 84.566406 146.097656 94.191406 148.039062 103.253906 151.875 C 112.007812 155.574219 119.867188 160.875 126.617188 167.625 C 133.367188 174.375 138.667969 182.234375 142.367188 190.988281 C 146.199219 200.050781 148.144531 209.675781 148.144531 219.597656 C 148.144531 229.519531 146.199219 239.144531 142.367188 248.207031 C 138.667969 256.960938 133.367188 264.820312 126.617188 271.570312 C 119.867188 278.320312 112.007812 283.617188 103.253906 287.320312 C 94.191406 291.152344 84.566406 293.097656 74.644531 293.097656 L 74.296875 293.097656 Z M 74.296875 146.097656 "/></g><g clip-rule="nonzero" clip-path="url(#8c38ca2d8c)"><path style=" stroke:none;fill-rule:nonzero;fill:#042626;fill-opacity:1;" d="M 74.292969 292.859375 L 73.945312 292.859375 C 64.023438 292.859375 54.398438 290.917969 45.335938 287.085938 C 36.585938 283.382812 28.726562 278.082031 21.976562 271.332031 C 15.226562 264.582031 9.925781 256.722656 6.222656 247.96875 C 2.390625 238.910156 0.449219 229.28125 0.449219 219.359375 C 0.449219 209.4375 2.390625 199.8125 6.222656 190.75 C 9.925781 182 15.226562 174.136719 21.976562 167.386719 C 28.726562 160.636719 36.585938 155.339844 45.335938 151.636719 C 54.398438 147.804688 64.023438 145.859375 73.945312 145.859375 L 74.292969 145.859375 Z M 74.292969 292.859375 "/></g><g clip-rule="nonzero" clip-path="url(#7eb28f46e7)"><path style=" stroke:none;fill-rule:nonzero;fill:#ffffff;fill-opacity:1;" d="M 0.324219 80.460938 L 159.308594 80.460938 L 159.308594 183.238281 L 0.324219 183.238281 Z M 0.324219 80.460938 "/></g><g clip-rule="nonzero" clip-path="url(#16592281b9)"><path style=" stroke:none;fill-rule:nonzero;fill:#ffffff;fill-opacity:1;" d="M 69.53125 162.609375 L 77.820312 162.609375 L 77.820312 300.015625 L 69.53125 300.015625 Z M 69.53125 162.609375 "/></g><g clip-rule="nonzero" clip-path="url(#2a66bc13a2)"><path style=" stroke:none;fill-rule:nonzero;fill:#042626;fill-opacity:1;" d="M 0 183.238281 L 39.214844 183.238281 L 39.214844 217.152344 L 0 217.152344 Z M 0 183.238281 "/></g><g clip-rule="nonzero" clip-path="url(#69139e0367)"><path style=" stroke:none;fill-rule:nonzero;fill:#ffffff;fill-opacity:1;" d="M 34.929688 181.515625 L 112.464844 181.515625 L 112.464844 217.152344 L 34.929688 217.152344 Z M 34.929688 181.515625 "/></g><g clip-rule="nonzero" clip-path="url(#1653907657)"><g clip-rule="nonzero" clip-path="url(#f88da98913)"><path style=" stroke:none;fill-rule:nonzero;fill:#042626;fill-opacity:1;" d="M 0.324219 183.238281 L 69.644531 183.238281 L 69.644531 252.289062 L 0.324219 252.289062 Z M 0.324219 183.238281 "/></g></g><g clip-rule="nonzero" clip-path="url(#cf9746d765)"><g clip-rule="nonzero" clip-path="url(#0caa304da0)"><path style=" stroke:none;fill-rule:nonzero;fill:#042626;fill-opacity:1;" d="M 0.324219 109.082031 L 69.644531 109.082031 L 69.644531 178.132812 L 0.324219 178.132812 Z M 0.324219 109.082031 "/></g></g><g clip-rule="nonzero" clip-path="url(#7767c7e8e8)"><g clip-rule="nonzero" clip-path="url(#5ad138b53c)"><path style=" stroke:none;fill-rule:nonzero;fill:#00bf63;fill-opacity:1;" d="M 77.820312 181.515625 L 147.140625 181.515625 L 147.140625 250.566406 L 77.820312 250.566406 Z M 77.820312 181.515625 "/></g></g><g clip-rule="nonzero" clip-path="url(#eed7e51dba)"><path style=" stroke:none;fill-rule:nonzero;fill:#00bf63;fill-opacity:1;" d="M 107.476562 148.710938 L 147.351562 148.710938 L 147.351562 215.375 L 107.476562 215.375 Z M 107.476562 148.710938 "/></g><g clip-rule="nonzero" clip-path="url(#8e99a467bc)"><g clip-rule="nonzero" clip-path="url(#c79d4c2d4b)"><path style=" stroke:none;fill-rule:nonzero;fill:#00bf63;fill-opacity:1;" d="M 77.820312 114.1875 L 147.140625 114.1875 L 147.140625 183.238281 L 77.820312 183.238281 Z M 77.820312 114.1875 "/></g></g><g clip-rule="nonzero" clip-path="url(#1883d3b2e2)"><path style=" stroke:none;fill-rule:nonzero;fill:#00bf63;fill-opacity:1;" d="M 77.820312 76.785156 L 147.351562 76.785156 L 147.351562 150.117188 L 77.820312 150.117188 Z M 77.820312 76.785156 "/></g><g clip-rule="nonzero" clip-path="url(#bad3f08a96)"><g clip-rule="nonzero" clip-path="url(#ecb56316d3)"><path style=" stroke:none;fill-rule:nonzero;fill:#00bf63;fill-opacity:1;" d="M 77.820312 0 L 147.140625 0 L 147.140625 69.050781 L 77.820312 69.050781 Z M 77.820312 0 "/></g></g><g style="fill:#042626;fill-opacity:1;"><g transform="translate(159.619485, 219.28172)"><path style="stroke:none" d="M 7.796875 0 L 7.796875 -19.59375 L 22.015625 -19.59375 L 22.015625 -101.40625 L 7.796875 -101.40625 L 7.796875 -121 L 61.015625 -121 L 61.015625 -101.40625 L 46.796875 -101.40625 L 46.796875 -19.59375 L 61.015625 -19.59375 L 61.015625 0 Z M 7.796875 0 "/></g></g><g style="fill:#042626;fill-opacity:1;"><g transform="translate(228.389207, 219.28172)"><path style="stroke:none" d="M 76.796875 -50.4375 L 36.578125 -50.4375 L 36.578125 0 L 11.78125 0 L 11.78125 -121 L 36.578125 -121 L 36.578125 -71.9375 L 76.796875 -71.9375 L 76.796875 -121 L 101.578125 -121 L 101.578125 0 L 76.796875 0 Z M 76.796875 -50.4375 "/></g></g><g style="fill:#042626;fill-opacity:1;"><g transform="translate(341.67723, 219.28172)"><path style="stroke:none" d="M 58.0625 -99.328125 L 58.0625 0 L 33.28125 0 L 33.28125 -99.328125 L 4.328125 -99.328125 L 4.328125 -121 L 87.015625 -121 L 87.015625 -99.328125 Z M 58.0625 -99.328125 "/></g></g><g style="fill:#042626;fill-opacity:1;"><g transform="translate(432.965924, 219.28172)"><path style="stroke:none" d="M 44.03125 -64.828125 L 36.40625 -84.078125 L 33.625 -84.078125 L 35.015625 -63.796875 L 35.015625 0 L 11.78125 0 L 11.78125 -121 L 38.828125 -121 L 69.34375 -56.15625 L 76.96875 -36.921875 L 79.734375 -36.921875 L 78.34375 -57.203125 L 78.34375 -121 L 101.578125 -121 L 101.578125 0 L 74.53125 0 Z M 44.03125 -64.828125 "/></g></g><g style="fill:#042626;fill-opacity:1;"><g transform="translate(546.253947, 219.28172)"><path style="stroke:none" d="M 79.21875 0 L 71.765625 -29.640625 L 34.671875 -29.640625 L 27.21875 0 L 3.46875 0 L 37.78125 -121 L 69.34375 -121 L 103.65625 0 Z M 58.25 -77.484375 L 54.4375 -98.453125 L 51.65625 -98.453125 L 47.84375 -77.484375 L 40.734375 -49.578125 L 65.703125 -49.578125 Z M 58.25 -77.484375 "/></g></g><g style="fill:#042626;fill-opacity:1;"><g transform="translate(653.305987, 219.28172)"><path style="stroke:none" d="M 47.15625 2.078125 C 29.007812 2.078125 14.789062 -4.273438 4.5 -16.984375 L 20.453125 -32.9375 C 27.390625 -24.039062 36.460938 -19.59375 47.671875 -19.59375 C 59.222656 -19.59375 65 -24.675781 65 -34.84375 C 65 -39 63.957031 -42.234375 61.875 -44.546875 C 59.800781 -46.859375 56.566406 -48.476562 52.171875 -49.40625 L 41.078125 -51.484375 C 29.867188 -53.566406 21.632812 -57.46875 16.375 -63.1875 C 11.125 -68.90625 8.5 -76.847656 8.5 -87.015625 C 8.5 -98.804688 11.960938 -107.765625 18.890625 -113.890625 C 25.828125 -120.015625 36 -123.078125 49.40625 -123.078125 C 66.507812 -123.078125 79.507812 -117.53125 88.40625 -106.4375 L 72.453125 -90.484375 C 69.453125 -94.179688 66.070312 -96.925781 62.3125 -98.71875 C 58.5625 -100.507812 54.144531 -101.40625 49.0625 -101.40625 C 43.507812 -101.40625 39.488281 -100.363281 37 -98.28125 C 34.519531 -96.207031 33.28125 -92.859375 33.28125 -88.234375 C 33.28125 -84.191406 34.234375 -81.128906 36.140625 -79.046875 C 38.046875 -76.960938 41.140625 -75.457031 45.421875 -74.53125 L 56.515625 -72.28125 C 62.398438 -71.007812 67.453125 -69.476562 71.671875 -67.6875 C 75.890625 -65.894531 79.359375 -63.613281 82.078125 -60.84375 C 84.796875 -58.070312 86.757812 -54.78125 87.96875 -50.96875 C 89.1875 -47.15625 89.796875 -42.703125 89.796875 -37.609375 C 89.796875 -24.671875 86.15625 -14.820312 78.875 -8.0625 C 71.59375 -1.300781 61.019531 2.078125 47.15625 2.078125 Z M 47.15625 2.078125 "/></g></g></g></svg>